<svg xmlns="http://www.w3.org/2000/svg" width="307.692" height="300" viewBox="0 0 307.692 300" id="after-effects">
  <defs>
    <radialGradient id="a" cx="117.022" cy="207.973" r="220.369" gradientTransform="matrix(.973 0 0 .942 2.515 3.053)" gradientUnits="userSpaceOnUse">
      <stop offset="0" stop-color="#442f55" stop-opacity=".98"></stop>
      <stop offset="1" stop-color="#12002c"></stop>
    </radialGradient>
  </defs>
  <g transform="translate(0 -130.746)">
    <path fill="url(#a)" d="M24.8,155.549H306.854V429.908H24.8Z" transform="translate(-11.983 -11.983)"></path>
    <path fill="#d8a1ff" d="M12.82,143.566H294.871V417.925H12.82ZM0,430.746H307.692v-300H0ZM217.692,275.361c6.538,0,8.846,0,9.487-.256,0-.9.256-1.539.256-2.18,0-6.923-3.333-19.743-16.666-19.743-12.308,0-17.564,10.769-18.846,22.18h25.769Zm-26.025,17.564c.256,17.308,8.461,28.975,27.949,28.975a50.176,50.176,0,0,0,20.9-3.974c.9-.385,1.539-.256,1.539.9v16.026a2.715,2.715,0,0,1-1.282,2.564c-6.795,3.333-15.257,4.872-25.769,4.872-33.846,0-46.538-25-46.538-52.82,0-30.256,15.641-55,43.205-55,27.949,0,37.692,23.461,37.692,42.564,0,6.154-.385,11.154-1.026,13.59a1.907,1.907,0,0,1-1.667,1.667,185.6,185.6,0,0,1-21.41.9h-33.59Zm-68.717-13.077c-3.59-14.231-12.308-45.256-15.513-60.256h-.256c-2.692,15-9.744,40.384-15,60.256Zm-36.026,20.77L76.795,338.951c-.256,1.025-.641,1.41-1.923,1.41H56.025c-1.282,0-1.539-.385-1.282-1.923l36.41-127.308c.641-2.307,1.026-4.1,1.282-10.512,0-.9.385-1.282,1.025-1.282h26.923c.9,0,1.282.256,1.539,1.282l40.769,138.077c.256,1.025,0,1.666-1.025,1.666H140.512a1.736,1.736,0,0,1-1.923-1.281l-10.513-38.461H86.923Z"></path>
  </g>
</svg>
